<svg width="31" height="31" viewBox="0 0 31 31" fill="none" xmlns="http://www.w3.org/2000/svg">
<g clip-path="url(#clip0_117_2560)">
<path d="M15.5002 2.5835C8.37791 2.5835 2.5835 8.37791 2.5835 15.5002C2.5835 22.6224 8.37791 28.4168 15.5002 28.4168C22.6224 28.4168 28.4168 22.6224 28.4168 15.5002C28.4168 14.0457 28.1636 12.651 27.718 11.3451L25.6266 13.4365C25.7623 14.103 25.8335 14.7936 25.8335 15.5002C25.8335 21.1977 21.1977 25.8335 15.5002 25.8335C9.80262 25.8335 5.16683 21.1977 5.16683 15.5002C5.16683 9.80262 9.80262 5.16683 15.5002 5.16683C17.6095 5.16683 19.5714 5.80477 21.2092 6.89494L23.0584 5.04574C20.9298 3.50349 18.3225 2.5835 15.5002 2.5835ZM27.5036 4.25358L14.2085 17.5487L9.95508 13.2952L8.12858 15.1217L14.2085 21.2017L29.3301 6.08008L27.5036 4.25358Z" fill="#78A55A"/>
</g>
<defs>
<clipPath id="clip0_117_2560">
<rect width="31" height="31" fill="white"/>
</clipPath>
</defs>
</svg>
